<svg width="143" height="31" viewBox="0 0 143 31" fill="none" xmlns="http://www.w3.org/2000/svg">
<path d="M29.8982 3.70853L23.337 13.3762C23.1826 13.6064 22.9511 13.8366 22.7195 13.9901L22.1792 14.3737C21.5617 14.8341 21.5617 15.6781 22.1792 16.1384L22.6423 16.4454C22.8739 16.5988 23.1055 16.829 23.2598 17.0592L29.9753 26.5734C30.5157 27.4174 30.5929 28.4916 29.9753 29.2589C29.2034 30.2564 27.814 30.4866 26.8106 29.796L17.0847 23.2741C16.8531 23.1207 16.6215 22.8905 16.4671 22.6603L16.0812 22.1232C15.6181 21.5094 14.769 21.5094 14.3058 22.1232L13.9971 22.5836C13.8427 22.8138 13.6111 23.044 13.3796 23.1974L3.80802 29.8727C2.95893 30.4098 1.87828 30.4866 1.10638 29.8727C0.102914 29.1055 -0.128653 27.7244 0.566055 26.7269L7.12718 17.0592C7.28156 16.829 7.51313 16.5988 7.7447 16.4454L8.28503 16.0617C8.90255 15.6013 8.90255 14.7573 8.28503 14.297L7.82188 13.9901C7.59031 13.8366 7.35875 13.6064 7.20438 13.3762L0.411678 3.78526C-0.20584 2.86452 -0.128648 1.63688 0.643249 0.869597C1.41515 0.102318 2.65017 -0.0511416 3.57645 0.562681L13.3024 7.08455C13.5339 7.23801 13.7655 7.46819 13.9199 7.69838L14.3058 8.23547C14.769 8.84929 15.6181 8.84929 16.0812 8.23547L16.3899 7.7751C16.5443 7.54492 16.7759 7.31473 17.0075 7.16128L26.7334 0.40923C27.6596 -0.204594 28.8947 -0.127869 29.6666 0.63941C30.4385 1.56014 30.5157 2.78779 29.8982 3.70853Z" fill="#E3B748"/>
<path d="M41.695 22.3758H45.1186V7.09138H41.695V22.3758Z" fill="white"/>
<path d="M56.0567 19.7292C54.4619 19.7292 53.3061 19.2807 52.5892 18.3838C51.8869 17.5016 51.5358 16.2885 51.5358 14.7446C51.5358 13.9947 51.6235 13.311 51.7991 12.6935C51.9747 12.0906 52.238 11.5686 52.5892 11.1275C52.9403 10.6864 53.3792 10.3409 53.9059 10.0909C54.4327 9.85566 55.0471 9.73803 55.7494 9.73803C56.1298 9.73803 56.4517 9.74539 56.7151 9.76009C56.993 9.77479 57.2344 9.8042 57.4393 9.84831V15.1637H60.8629V7.59865C60.4532 7.43691 59.7948 7.26782 58.8877 7.09138C57.9806 6.90023 56.8614 6.80466 55.53 6.80466C54.3888 6.80466 53.35 6.9811 52.4136 7.33399C51.4919 7.68688 50.7018 8.20151 50.0434 8.87787C49.385 9.55424 48.873 10.385 48.5072 11.3701C48.1561 12.3553 47.9805 13.4801 47.9805 14.7446C47.9805 16.0238 48.178 17.156 48.573 18.1412C48.9681 19.1263 49.5094 19.9571 50.197 20.6334C50.8847 21.3245 51.6894 21.8465 52.6111 22.1994C53.5475 22.5523 54.5424 22.7287 55.5958 22.7287C56.3127 22.7287 56.9565 22.6772 57.5271 22.5743C58.1123 22.4861 58.6097 22.3758 59.0194 22.2435C59.4437 22.1258 59.7875 22.0009 60.0509 21.8685C60.3289 21.7362 60.5264 21.6333 60.6434 21.5598L59.6558 18.8028C59.1877 19.0528 58.6463 19.266 58.0318 19.4424C57.432 19.6336 56.7736 19.7292 56.0567 19.7292Z" fill="white"/>
<path d="M68.1961 9.71598C68.679 9.71598 69.074 9.75274 69.3812 9.82626C69.7031 9.91448 69.9592 10.0248 70.1493 10.1571C70.3396 10.3041 70.4712 10.4732 70.5444 10.6644C70.6175 10.8555 70.6541 11.0687 70.6541 11.304C70.6541 11.8039 70.42 12.2156 69.9518 12.5391C69.4837 12.8773 68.679 13.2375 67.5378 13.6198C67.0403 13.7962 66.5429 13.9947 66.0454 14.2153C65.548 14.4506 65.1017 14.7373 64.7067 15.0755C64.3117 15.4283 63.9898 15.8474 63.7411 16.3326C63.4924 16.8325 63.368 17.4354 63.368 18.1412C63.368 18.8469 63.4997 19.4792 63.763 20.0379C64.0264 20.6114 64.3995 21.0966 64.8823 21.4936C65.3651 21.8906 65.9503 22.192 66.638 22.3979C67.3256 22.6184 68.101 22.7287 68.9643 22.7287C69.9884 22.7287 70.8736 22.6184 71.6197 22.3979C72.3659 22.1773 72.9804 21.9347 73.4632 21.67L72.4756 18.9572C72.0513 19.1778 71.5758 19.3689 71.0491 19.5307C70.5371 19.7071 69.9153 19.7953 69.1837 19.7953C68.3644 19.7953 67.7719 19.6777 67.4061 19.4424C67.0549 19.2219 66.8794 18.8763 66.8794 18.4058C66.8794 18.1265 66.9452 17.8912 67.0769 17.7001C67.2086 17.5089 67.3915 17.3325 67.6255 17.1707C67.8743 17.0237 68.1523 16.884 68.4595 16.7517C68.7814 16.634 69.1325 16.5091 69.5129 16.3767C70.303 16.0827 70.9906 15.7886 71.5758 15.4945C72.1611 15.2151 72.6439 14.8843 73.0243 14.502C73.4193 14.1197 73.7119 13.6713 73.9021 13.1566C74.0923 12.642 74.1874 12.0171 74.1874 11.2819C74.1874 9.85567 73.69 8.74554 72.6951 7.95154C71.7002 7.17225 70.2006 6.7826 68.1961 6.7826C67.5231 6.7826 66.916 6.82672 66.3746 6.91494C65.8333 6.98845 65.3505 7.08403 64.9262 7.20166C64.5165 7.31929 64.1581 7.44427 63.8508 7.5766C63.5582 7.70893 63.3095 7.83391 63.1046 7.95154L64.0703 10.6864C64.5238 10.4365 65.0798 10.2086 65.7382 10.0027C66.4112 9.81155 67.2305 9.71598 68.1961 9.71598Z" fill="white"/>
<path d="M87.6733 22.3758V19.4424H83.0866V7.09138H79.663V19.4424H75.0763V22.3758H87.6733Z" fill="white"/>
<path d="M95.821 6.7826C94.753 6.7826 93.8312 6.92964 93.0558 7.22371C92.2804 7.53249 91.6366 7.95154 91.1245 8.48087C90.6271 9.02491 90.254 9.66452 90.0053 10.3997C89.7712 11.1496 89.6542 11.973 89.6542 12.8699V22.3758H93.0778V13.1566C93.0778 12.5391 93.1436 12.0097 93.2753 11.5686C93.4216 11.1422 93.6118 10.7893 93.8459 10.51C94.0946 10.2453 94.3872 10.0542 94.7237 9.93653C95.0749 9.8189 95.4553 9.76009 95.8649 9.76009C96.6989 9.76009 97.3719 10.0174 97.884 10.532C98.4107 11.0467 98.674 11.9215 98.674 13.1566V22.3758H102.098V12.8699C102.098 11.973 101.973 11.1496 101.725 10.3997C101.476 9.64981 101.095 9.00285 100.583 8.45882C100.071 7.92949 99.4202 7.51779 98.6301 7.22371C97.8401 6.92964 96.9037 6.7826 95.821 6.7826Z" fill="white"/>
<path d="M108.814 9.89242C108.975 9.87772 109.158 9.86302 109.362 9.84831C109.582 9.84831 109.838 9.84831 110.131 9.84831C111.842 9.84831 113.108 10.2821 113.927 11.1496C114.761 12.0171 115.178 13.2154 115.178 14.7446C115.178 16.3473 114.783 17.5604 113.993 18.3838C113.203 19.2072 111.952 19.6189 110.24 19.6189C110.006 19.6189 109.765 19.6115 109.516 19.5968C109.267 19.5968 109.033 19.5821 108.814 19.5527V9.89242ZM118.712 14.7446C118.712 13.4213 118.507 12.2671 118.097 11.2819C117.687 10.2968 117.102 9.48072 116.341 8.83376C115.595 8.1868 114.681 7.70158 113.598 7.3781C112.515 7.05462 111.301 6.89288 109.955 6.89288C109.341 6.89288 108.624 6.92229 107.804 6.9811C106.985 7.02521 106.18 7.12814 105.39 7.28988V22.1773C106.18 22.3243 107 22.4199 107.848 22.464C108.711 22.5228 109.45 22.5523 110.065 22.5523C111.367 22.5523 112.545 22.4052 113.598 22.1111C114.666 21.8171 115.581 21.3539 116.341 20.7217C117.102 20.0894 117.687 19.2807 118.097 18.2956C118.507 17.3104 118.712 16.1268 118.712 14.7446Z" fill="white"/>
<path d="M121.571 22.3758H124.995V7.09138H121.571V22.3758Z" fill="white"/>
<path d="M131.39 14.7446C131.39 13.9947 131.478 13.3184 131.653 12.7155C131.844 12.1127 132.107 11.5907 132.443 11.1496C132.795 10.7232 133.219 10.3923 133.716 10.1571C134.214 9.92183 134.784 9.8042 135.428 9.8042C136.057 9.8042 136.621 9.92183 137.118 10.1571C137.63 10.3923 138.054 10.7232 138.391 11.1496C138.742 11.5907 139.005 12.1127 139.181 12.7155C139.371 13.3184 139.466 13.9947 139.466 14.7446C139.466 15.4945 139.371 16.1709 139.181 16.7737C139.005 17.3913 138.742 17.9133 138.391 18.3397C138.054 18.7808 137.63 19.119 137.118 19.3542C136.621 19.5895 136.057 19.7071 135.428 19.7071C134.784 19.7071 134.214 19.5821 133.716 19.3322C133.219 19.0969 132.795 18.7587 132.443 18.3176C132.107 17.8912 131.844 17.3692 131.653 16.7517C131.478 16.1488 131.39 15.4798 131.39 14.7446ZM143 14.7446C143 13.436 142.802 12.2818 142.407 11.2819C142.027 10.2968 141.5 9.46602 140.827 8.78965C140.154 8.12799 139.349 7.62806 138.413 7.28988C137.491 6.9517 136.496 6.7826 135.428 6.7826C134.389 6.7826 133.409 6.9517 132.487 7.28988C131.566 7.62806 130.761 8.12799 130.073 8.78965C129.386 9.46602 128.844 10.2968 128.449 11.2819C128.054 12.2818 127.857 13.436 127.857 14.7446C127.857 16.0532 128.062 17.2001 128.471 18.1853C128.881 19.1851 129.43 20.0232 130.117 20.6996C130.819 21.376 131.624 21.8832 132.531 22.2214C133.453 22.5596 134.419 22.7287 135.428 22.7287C136.467 22.7287 137.447 22.5596 138.369 22.2214C139.291 21.8832 140.095 21.376 140.783 20.6996C141.471 20.0232 142.012 19.1851 142.407 18.1853C142.802 17.2001 143 16.0532 143 14.7446Z" fill="white"/>
</svg>
